<svg width="161" height="20" viewBox="0 0 161 20" fill="none" xmlns="http://www.w3.org/2000/svg">
<g clip-path="url(#clip0)">
<path d="M144.908 8.17864V4.05524L142.589 7.39034L138.731 6.11694L141.15 9.47226L138.771 12.8074L142.589 11.534L144.908 14.8893V10.7457L148.806 9.47226L144.908 8.17864Z" fill="black"/>
<path d="M152.444 -0.027771H145.108L153.664 9.47223L145.108 18.9722H152.444L161 9.47223L152.444 -0.027771ZM8.31587 5.53074C9.47529 5.53074 10.6147 6.0967 11.3743 7.0467L11.6542 7.39031L15.2324 4.90414L14.9126 4.49989C13.3334 2.49882 10.9146 1.3467 8.31587 1.3467C3.73814 1.3467 0 4.96478 0 9.39138C0 13.818 3.73814 17.4361 8.31587 17.4361C10.8946 17.4361 13.2934 16.3041 14.8726 14.3435L15.1925 13.9392L11.6142 11.4531L11.3344 11.7967C10.5548 12.7467 9.4553 13.2924 8.29588 13.2924C6.17693 13.2924 4.37782 11.5137 4.37782 9.41159C4.39781 7.30946 6.19692 5.53074 8.31587 5.53074ZM46.7568 10.3616L40.28 1.79138H36.162V16.951H40.16V8.46159L46.197 16.951H50.7548V1.79138H46.7568V10.3616ZM62.1491 12.585C62.1491 12.7063 61.9892 12.7265 61.9092 12.7265C61.8493 12.7265 61.7293 12.7063 61.6694 12.5648L58.351 1.79138H53.7533L58.6509 16.951H65.1876L70.0852 1.79138H65.4875L62.1491 12.585ZM99.3706 10.7658C100.97 9.83606 101.889 8.13819 101.749 6.27861C101.57 3.75202 99.3906 1.81159 96.7919 1.81159H89.1357V16.9712H93.1337V11.5137H94.9328C95.1127 11.5137 95.2727 11.5339 95.3926 11.6956L97.9713 16.9712H102.469L99.3706 10.7658ZM96.672 7.45095H93.1537V5.83393H96.672C97.1517 5.83393 97.5515 6.15734 97.5515 6.64244C97.5515 7.12755 97.1517 7.45095 96.672 7.45095ZM121.52 16.951H133.514V12.9084H125.518V11.0893H132.714V7.45095H125.518V5.83393H133.514V1.79138H121.52V16.951ZM112.484 7.51159C110.345 7.02648 109.725 6.70308 109.725 5.99563V5.95521C109.725 5.38925 110.145 4.94457 111.185 4.94457C112.564 4.94457 113.684 5.38925 115.183 6.29882L117.582 3.42861C115.902 2.07436 113.883 1.3467 111.265 1.3467C107.547 1.3467 105.328 3.44882 105.328 6.35946V6.39989C105.328 9.61372 107.946 10.5637 111.245 11.3116C113.344 11.7967 113.923 12.1605 113.923 12.8073V12.8478C113.923 13.5148 113.184 13.919 112.024 13.919C110.225 13.919 108.466 13.2722 106.947 12.0393L104.528 14.9297C106.427 16.6478 109.186 17.5169 111.924 17.5169C115.683 17.5169 118.321 15.6169 118.321 12.4233V12.3829C118.321 9.45202 116.042 8.29989 112.484 7.51159ZM24.9476 1.36691C20.4698 1.36691 16.8316 4.985 16.8316 9.41159C16.8316 13.8584 20.4698 17.4563 24.9476 17.4563C29.4254 17.4563 33.0636 13.8382 33.0636 9.41159C33.0636 4.96478 29.4254 1.36691 24.9476 1.36691ZM24.9476 13.252C22.8486 13.252 21.1495 11.5339 21.1495 9.41159C21.1495 7.28925 22.8486 5.57117 24.9476 5.57117C27.0466 5.57117 28.7457 7.28925 28.7457 9.41159C28.7457 11.5339 27.0466 13.252 24.9476 13.252ZM72.9438 16.951H84.9378V12.9084H76.9418V11.0893H84.1382V7.45095H76.9418V5.83393H84.9378V1.79138H72.9438V16.951Z" fill="black"/>
</g>
<defs>
<clipPath id="clip0">
<rect width="161" height="19" fill="white" transform="translate(0 0.5)"/>
</clipPath>
</defs>
</svg>
